<?xml version="1.0" encoding="UTF-8" standalone="no"?>
<!DOCTYPE svg PUBLIC "-//W3C//DTD SVG 1.1//EN"
 "http://www.w3.org/Graphics/SVG/1.1/DTD/svg11.dtd">
<!-- Generated by graphviz version 5.0.1 (20220820.1526)
 -->
<!-- Pages: 1 -->
<svg width="3407pt" height="476pt"
 viewBox="0.00 0.00 3407.00 476.00" xmlns="http://www.w3.org/2000/svg" xmlns:xlink="http://www.w3.org/1999/xlink">
<g id="graph0" class="graph" transform="scale(1 1) rotate(0) translate(4 472)">
<polygon fill="white" stroke="none" points="-4,4 -4,-472 3403,-472 3403,4 -4,4"/>
<!-- [root] aws_instance.vault_cluster (expand) -->
<g id="node1" class="node">
<title>[root] aws_instance.vault_cluster (expand)</title>
<polygon fill="none" stroke="black" points="1684,-252 1522,-252 1522,-216 1684,-216 1684,-252"/>
<text text-anchor="middle" x="1603" y="-230.3" font-family="Times,serif" font-size="14.00">aws_instance.vault_cluster</text>
</g>
<!-- [root] aws_key_pair.key (expand) -->
<g id="node3" class="node">
<title>[root] aws_key_pair.key (expand)</title>
<polygon fill="none" stroke="black" points="969,-180 855,-180 855,-144 969,-144 969,-180"/>
<text text-anchor="middle" x="912" y="-158.3" font-family="Times,serif" font-size="14.00">aws_key_pair.key</text>
</g>
<!-- [root] aws_instance.vault_cluster (expand)&#45;&gt;[root] aws_key_pair.key (expand) -->
<g id="edge1" class="edge">
<title>[root] aws_instance.vault_cluster (expand)&#45;&gt;[root] aws_key_pair.key (expand)</title>
<path fill="none" stroke="black" d="M1521.93,-217.62C1517.9,-217.03 1513.91,-216.49 1510,-216 1278.49,-187.09 1214.34,-216.42 979.12,-179.81"/>
<polygon fill="black" stroke="black" points="979.66,-176.35 969.24,-178.25 978.57,-183.27 979.66,-176.35"/>
</g>
<!-- [root] aws_kms_key.autounseal_key (expand) -->
<g id="node5" class="node">
<title>[root] aws_kms_key.autounseal_key (expand)</title>
<polygon fill="none" stroke="black" points="263.5,-180 82.5,-180 82.5,-144 263.5,-144 263.5,-180"/>
<text text-anchor="middle" x="173" y="-158.3" font-family="Times,serif" font-size="14.00">aws_kms_key.autounseal_key</text>
</g>
<!-- [root] aws_instance.vault_cluster (expand)&#45;&gt;[root] aws_kms_key.autounseal_key (expand) -->
<g id="edge2" class="edge">
<title>[root] aws_instance.vault_cluster (expand)&#45;&gt;[root] aws_kms_key.autounseal_key (expand)</title>
<path fill="none" stroke="black" d="M1521.95,-217.44C1517.92,-216.9 1513.92,-216.41 1510,-216 966.35,-158.74 822.09,-233.3 273.82,-179.98"/>
<polygon fill="black" stroke="black" points="273.97,-176.48 263.68,-178.98 273.29,-183.44 273.97,-176.48"/>
</g>
<!-- [root] aws_security_group.vault_sg (expand) -->
<g id="node6" class="node">
<title>[root] aws_security_group.vault_sg (expand)</title>
<polygon fill="none" stroke="black" points="685.5,-180 510.5,-180 510.5,-144 685.5,-144 685.5,-180"/>
<text text-anchor="middle" x="598" y="-158.3" font-family="Times,serif" font-size="14.00">aws_security_group.vault_sg</text>
</g>
<!-- [root] aws_instance.vault_cluster (expand)&#45;&gt;[root] aws_security_group.vault_sg (expand) -->
<g id="edge3" class="edge">
<title>[root] aws_instance.vault_cluster (expand)&#45;&gt;[root] aws_security_group.vault_sg (expand)</title>
<path fill="none" stroke="black" d="M1521.94,-217.51C1517.91,-216.95 1513.91,-216.44 1510,-216 1152.97,-175.67 1057.16,-218.59 695.65,-179.97"/>
<polygon fill="black" stroke="black" points="696.01,-176.49 685.7,-178.89 695.26,-183.45 696.01,-176.49"/>
</g>
<!-- [root] data.aws_ami.ubuntu (expand) -->
<g id="node7" class="node">
<title>[root] data.aws_ami.ubuntu (expand)</title>
<polygon fill="none" stroke="black" points="836.5,-180 703.5,-180 703.5,-144 836.5,-144 836.5,-180"/>
<text text-anchor="middle" x="770" y="-158.3" font-family="Times,serif" font-size="14.00">data.aws_ami.ubuntu</text>
</g>
<!-- [root] aws_instance.vault_cluster (expand)&#45;&gt;[root] data.aws_ami.ubuntu (expand) -->
<g id="edge4" class="edge">
<title>[root] aws_instance.vault_cluster (expand)&#45;&gt;[root] data.aws_ami.ubuntu (expand)</title>
<path fill="none" stroke="black" d="M1521.94,-217.56C1517.91,-216.99 1513.91,-216.46 1510,-216 1219.79,-181.75 1140.54,-219.53 846.71,-179.94"/>
<polygon fill="black" stroke="black" points="847,-176.44 836.61,-178.56 846.05,-183.38 847,-176.44"/>
</g>
<!-- [root] var.aws_instance_cluster_count -->
<g id="node15" class="node">
<title>[root] var.aws_instance_cluster_count</title>
<polygon fill="none" stroke="black" points="2983,-180 2801,-180 2801,-144 2989,-144 2989,-174 2983,-180"/>
<polyline fill="none" stroke="black" points="2983,-180 2983,-174"/>
<polyline fill="none" stroke="black" points="2989,-174 2983,-174"/>
<text text-anchor="middle" x="2895" y="-158.3" font-family="Times,serif" font-size="14.00">var.aws_instance_cluster_count</text>
</g>
<!-- [root] aws_instance.vault_cluster (expand)&#45;&gt;[root] var.aws_instance_cluster_count -->
<g id="edge5" class="edge">
<title>[root] aws_instance.vault_cluster (expand)&#45;&gt;[root] var.aws_instance_cluster_count</title>
<path fill="none" stroke="black" d="M1684.35,-217.05C1687.27,-216.67 1690.15,-216.31 1693,-216 2175.45,-162.85 2303.89,-227.01 2790.66,-180.05"/>
<polygon fill="black" stroke="black" points="2791.15,-183.51 2800.77,-179.06 2790.47,-176.55 2791.15,-183.51"/>
</g>
<!-- [root] var.aws_instance_type -->
<g id="node17" class="node">
<title>[root] var.aws_instance_type</title>
<polygon fill="none" stroke="black" points="1120.5,-180 987.5,-180 987.5,-144 1126.5,-144 1126.5,-174 1120.5,-180"/>
<polyline fill="none" stroke="black" points="1120.5,-180 1120.5,-174"/>
<polyline fill="none" stroke="black" points="1126.5,-174 1120.5,-174"/>
<text text-anchor="middle" x="1057" y="-158.3" font-family="Times,serif" font-size="14.00">var.aws_instance_type</text>
</g>
<!-- [root] aws_instance.vault_cluster (expand)&#45;&gt;[root] var.aws_instance_type -->
<g id="edge6" class="edge">
<title>[root] aws_instance.vault_cluster (expand)&#45;&gt;[root] var.aws_instance_type</title>
<path fill="none" stroke="black" d="M1521.91,-217.76C1517.89,-217.13 1513.9,-216.54 1510,-216 1347.84,-193.42 1302.76,-205.13 1136.77,-180"/>
<polygon fill="black" stroke="black" points="1137.12,-176.52 1126.71,-178.46 1136.06,-183.44 1137.12,-176.52"/>
</g>
<!-- [root] var.ssh_private_key_location -->
<g id="node20" class="node">
<title>[root] var.ssh_private_key_location</title>
<polygon fill="none" stroke="black" points="1313.5,-180 1144.5,-180 1144.5,-144 1319.5,-144 1319.5,-174 1313.5,-180"/>
<polyline fill="none" stroke="black" points="1313.5,-180 1313.5,-174"/>
<polyline fill="none" stroke="black" points="1319.5,-174 1313.5,-174"/>
<text text-anchor="middle" x="1232" y="-158.3" font-family="Times,serif" font-size="14.00">var.ssh_private_key_location</text>
</g>
<!-- [root] aws_instance.vault_cluster (expand)&#45;&gt;[root] var.ssh_private_key_location -->
<g id="edge7" class="edge">
<title>[root] aws_instance.vault_cluster (expand)&#45;&gt;[root] var.ssh_private_key_location</title>
<path fill="none" stroke="black" d="M1521.58,-217.64C1465.01,-206.96 1389.34,-192.69 1329.54,-181.4"/>
<polygon fill="black" stroke="black" points="1330.18,-177.96 1319.7,-179.55 1328.88,-184.84 1330.18,-177.96"/>
</g>
<!-- [root] var.vault_aws_unseal_tag_key -->
<g id="node22" class="node">
<title>[root] var.vault_aws_unseal_tag_key</title>
<polygon fill="none" stroke="black" points="3183,-180 3007,-180 3007,-144 3189,-144 3189,-174 3183,-180"/>
<polyline fill="none" stroke="black" points="3183,-180 3183,-174"/>
<polyline fill="none" stroke="black" points="3189,-174 3183,-174"/>
<text text-anchor="middle" x="3098" y="-158.3" font-family="Times,serif" font-size="14.00">var.vault_aws_unseal_tag_key</text>
</g>
<!-- [root] aws_instance.vault_cluster (expand)&#45;&gt;[root] var.vault_aws_unseal_tag_key -->
<g id="edge8" class="edge">
<title>[root] aws_instance.vault_cluster (expand)&#45;&gt;[root] var.vault_aws_unseal_tag_key</title>
<path fill="none" stroke="black" d="M1684.35,-217.03C1687.26,-216.65 1690.15,-216.31 1693,-216 2266.51,-154.32 2418.78,-235.8 2996.53,-180.05"/>
<polygon fill="black" stroke="black" points="2997.17,-183.5 3006.79,-179.05 2996.49,-176.54 2997.17,-183.5"/>
</g>
<!-- [root] var.vault_aws_unseal_tag_value -->
<g id="node23" class="node">
<title>[root] var.vault_aws_unseal_tag_value</title>
<polygon fill="none" stroke="black" points="3393,-180 3207,-180 3207,-144 3399,-144 3399,-174 3393,-180"/>
<polyline fill="none" stroke="black" points="3393,-180 3393,-174"/>
<polyline fill="none" stroke="black" points="3399,-174 3393,-174"/>
<text text-anchor="middle" x="3303" y="-158.3" font-family="Times,serif" font-size="14.00">var.vault_aws_unseal_tag_value</text>
</g>
<!-- [root] aws_instance.vault_cluster (expand)&#45;&gt;[root] var.vault_aws_unseal_tag_value -->
<g id="edge9" class="edge">
<title>[root] aws_instance.vault_cluster (expand)&#45;&gt;[root] var.vault_aws_unseal_tag_value</title>
<path fill="none" stroke="black" d="M1684.35,-217.02C1687.26,-216.64 1690.15,-216.3 1693,-216 2354.96,-146.03 2529.97,-240.63 3196.59,-180.04"/>
<polygon fill="black" stroke="black" points="3197.3,-183.49 3206.94,-179.09 3196.66,-176.52 3197.3,-183.49"/>
</g>
<!-- [root] var.vault_binary_name -->
<g id="node24" class="node">
<title>[root] var.vault_binary_name</title>
<polygon fill="none" stroke="black" points="1474,-180 1338,-180 1338,-144 1480,-144 1480,-174 1474,-180"/>
<polyline fill="none" stroke="black" points="1474,-180 1474,-174"/>
<polyline fill="none" stroke="black" points="1480,-174 1474,-174"/>
<text text-anchor="middle" x="1409" y="-158.3" font-family="Times,serif" font-size="14.00">var.vault_binary_name</text>
</g>
<!-- [root] aws_instance.vault_cluster (expand)&#45;&gt;[root] var.vault_binary_name -->
<g id="edge10" class="edge">
<title>[root] aws_instance.vault_cluster (expand)&#45;&gt;[root] var.vault_binary_name</title>
<path fill="none" stroke="black" d="M1555.54,-215.88C1528.43,-206.09 1494.26,-193.77 1465.74,-183.47"/>
<polygon fill="black" stroke="black" points="1466.9,-180.17 1456.3,-180.07 1464.52,-186.75 1466.9,-180.17"/>
</g>
<!-- [root] var.vault_cluster_config_file_source -->
<g id="node25" class="node">
<title>[root] var.vault_cluster_config_file_source</title>
<polygon fill="none" stroke="black" points="1707.5,-180 1498.5,-180 1498.5,-144 1713.5,-144 1713.5,-174 1707.5,-180"/>
<polyline fill="none" stroke="black" points="1707.5,-180 1707.5,-174"/>
<polyline fill="none" stroke="black" points="1713.5,-174 1707.5,-174"/>
<text text-anchor="middle" x="1606" y="-158.3" font-family="Times,serif" font-size="14.00">var.vault_cluster_config_file_source</text>
</g>
<!-- [root] aws_instance.vault_cluster (expand)&#45;&gt;[root] var.vault_cluster_config_file_source -->
<g id="edge11" class="edge">
<title>[root] aws_instance.vault_cluster (expand)&#45;&gt;[root] var.vault_cluster_config_file_source</title>
<path fill="none" stroke="black" d="M1603.74,-215.7C1604.07,-207.98 1604.47,-198.71 1604.84,-190.11"/>
<polygon fill="black" stroke="black" points="1608.34,-190.25 1605.27,-180.1 1601.34,-189.95 1608.34,-190.25"/>
</g>
<!-- [root] var.vault_config_file_destination -->
<g id="node26" class="node">
<title>[root] var.vault_config_file_destination</title>
<polygon fill="none" stroke="black" points="1922,-180 1732,-180 1732,-144 1928,-144 1928,-174 1922,-180"/>
<polyline fill="none" stroke="black" points="1922,-180 1922,-174"/>
<polyline fill="none" stroke="black" points="1928,-174 1922,-174"/>
<text text-anchor="middle" x="1830" y="-158.3" font-family="Times,serif" font-size="14.00">var.vault_config_file_destination</text>
</g>
<!-- [root] aws_instance.vault_cluster (expand)&#45;&gt;[root] var.vault_config_file_destination -->
<g id="edge12" class="edge">
<title>[root] aws_instance.vault_cluster (expand)&#45;&gt;[root] var.vault_config_file_destination</title>
<path fill="none" stroke="black" d="M1658.24,-215.97C1690.37,-206.06 1731.05,-193.51 1764.75,-183.12"/>
<polygon fill="black" stroke="black" points="1765.99,-186.4 1774.51,-180.11 1763.92,-179.71 1765.99,-186.4"/>
</g>
<!-- [root] var.vault_enterprise_license_destination -->
<g id="node27" class="node">
<title>[root] var.vault_enterprise_license_destination</title>
<polygon fill="none" stroke="black" points="2174,-180 1946,-180 1946,-144 2180,-144 2180,-174 2174,-180"/>
<polyline fill="none" stroke="black" points="2174,-180 2174,-174"/>
<polyline fill="none" stroke="black" points="2180,-174 2174,-174"/>
<text text-anchor="middle" x="2063" y="-158.3" font-family="Times,serif" font-size="14.00">var.vault_enterprise_license_destination</text>
</g>
<!-- [root] aws_instance.vault_cluster (expand)&#45;&gt;[root] var.vault_enterprise_license_destination -->
<g id="edge13" class="edge">
<title>[root] aws_instance.vault_cluster (expand)&#45;&gt;[root] var.vault_enterprise_license_destination</title>
<path fill="none" stroke="black" d="M1684.41,-217.46C1687.3,-216.96 1690.18,-216.47 1693,-216 1738.54,-208.44 1847.73,-192.92 1935.77,-180.61"/>
<polygon fill="black" stroke="black" points="1936.43,-184.05 1945.85,-179.2 1935.46,-177.12 1936.43,-184.05"/>
</g>
<!-- [root] var.vault_enterprise_license_source -->
<g id="node28" class="node">
<title>[root] var.vault_enterprise_license_source</title>
<polygon fill="none" stroke="black" points="2402,-180 2198,-180 2198,-144 2408,-144 2408,-174 2402,-180"/>
<polyline fill="none" stroke="black" points="2402,-180 2402,-174"/>
<polyline fill="none" stroke="black" points="2408,-174 2402,-174"/>
<text text-anchor="middle" x="2303" y="-158.3" font-family="Times,serif" font-size="14.00">var.vault_enterprise_license_source</text>
</g>
<!-- [root] aws_instance.vault_cluster (expand)&#45;&gt;[root] var.vault_enterprise_license_source -->
<g id="edge14" class="edge">
<title>[root] aws_instance.vault_cluster (expand)&#45;&gt;[root] var.vault_enterprise_license_source</title>
<path fill="none" stroke="black" d="M1684.37,-217.2C1687.28,-216.77 1690.16,-216.37 1693,-216 1908.85,-187.87 1967.55,-203.82 2187.5,-180.11"/>
<polygon fill="black" stroke="black" points="2188.19,-183.56 2197.76,-178.99 2187.43,-176.6 2188.19,-183.56"/>
</g>
<!-- [root] var.vault_env_file_destination -->
<g id="node29" class="node">
<title>[root] var.vault_env_file_destination</title>
<polygon fill="none" stroke="black" points="2601.5,-180 2426.5,-180 2426.5,-144 2607.5,-144 2607.5,-174 2601.5,-180"/>
<polyline fill="none" stroke="black" points="2601.5,-180 2601.5,-174"/>
<polyline fill="none" stroke="black" points="2607.5,-174 2601.5,-174"/>
<text text-anchor="middle" x="2517" y="-158.3" font-family="Times,serif" font-size="14.00">var.vault_env_file_destination</text>
</g>
<!-- [root] aws_instance.vault_cluster (expand)&#45;&gt;[root] var.vault_env_file_destination -->
<g id="edge15" class="edge">
<title>[root] aws_instance.vault_cluster (expand)&#45;&gt;[root] var.vault_env_file_destination</title>
<path fill="none" stroke="black" d="M1684.36,-217.12C1687.27,-216.71 1690.16,-216.34 1693,-216 2009.65,-178.4 2094.99,-214.31 2416.25,-179.99"/>
<polygon fill="black" stroke="black" points="2416.75,-183.46 2426.31,-178.9 2416,-176.5 2416.75,-183.46"/>
</g>
<!-- [root] var.vault_env_file_source -->
<g id="node30" class="node">
<title>[root] var.vault_env_file_source</title>
<polygon fill="none" stroke="black" points="2776.5,-180 2625.5,-180 2625.5,-144 2782.5,-144 2782.5,-174 2776.5,-180"/>
<polyline fill="none" stroke="black" points="2776.5,-180 2776.5,-174"/>
<polyline fill="none" stroke="black" points="2782.5,-174 2776.5,-174"/>
<text text-anchor="middle" x="2704" y="-158.3" font-family="Times,serif" font-size="14.00">var.vault_env_file_source</text>
</g>
<!-- [root] aws_instance.vault_cluster (expand)&#45;&gt;[root] var.vault_env_file_source -->
<g id="edge16" class="edge">
<title>[root] aws_instance.vault_cluster (expand)&#45;&gt;[root] var.vault_env_file_source</title>
<path fill="none" stroke="black" d="M1684.35,-217.08C1687.27,-216.68 1690.16,-216.32 1693,-216 2098.08,-170.11 2207.03,-226.62 2615.36,-180.08"/>
<polygon fill="black" stroke="black" points="2615.83,-183.55 2625.36,-178.93 2615.03,-176.6 2615.83,-183.55"/>
</g>
<!-- [root] aws_instance.vault_replication (expand) -->
<g id="node2" class="node">
<title>[root] aws_instance.vault_replication (expand)</title>
<polygon fill="none" stroke="black" points="1501,-252 1317,-252 1317,-216 1501,-216 1501,-252"/>
<text text-anchor="middle" x="1409" y="-230.3" font-family="Times,serif" font-size="14.00">aws_instance.vault_replication</text>
</g>
<!-- [root] aws_instance.vault_replication (expand)&#45;&gt;[root] aws_key_pair.key (expand) -->
<g id="edge17" class="edge">
<title>[root] aws_instance.vault_replication (expand)&#45;&gt;[root] aws_key_pair.key (expand)</title>
<path fill="none" stroke="black" d="M1316.63,-225.01C1231.51,-216.86 1101.58,-202.47 979.2,-179.89"/>
<polygon fill="black" stroke="black" points="979.75,-176.43 969.28,-178.04 978.46,-183.31 979.75,-176.43"/>
</g>
<!-- [root] aws_instance.vault_replication (expand)&#45;&gt;[root] aws_kms_key.autounseal_key (expand) -->
<g id="edge18" class="edge">
<title>[root] aws_instance.vault_replication (expand)&#45;&gt;[root] aws_kms_key.autounseal_key (expand)</title>
<path fill="none" stroke="black" d="M1316.88,-225.06C1277.78,-221.9 1231.69,-218.44 1190,-216 786.11,-192.4 680.37,-221.79 273.65,-179.97"/>
<polygon fill="black" stroke="black" points="273.99,-176.49 263.68,-178.94 273.27,-183.45 273.99,-176.49"/>
</g>
<!-- [root] aws_instance.vault_replication (expand)&#45;&gt;[root] aws_security_group.vault_sg (expand) -->
<g id="edge19" class="edge">
<title>[root] aws_instance.vault_replication (expand)&#45;&gt;[root] aws_security_group.vault_sg (expand)</title>
<path fill="none" stroke="black" d="M1316.84,-225.75C1277.73,-222.69 1231.64,-219.13 1190,-216 973.37,-199.71 915.65,-206.85 695.96,-180.04"/>
<polygon fill="black" stroke="black" points="696.06,-176.53 685.71,-178.78 695.21,-183.48 696.06,-176.53"/>
</g>
<!-- [root] aws_instance.vault_replication (expand)&#45;&gt;[root] data.aws_ami.ubuntu (expand) -->
<g id="edge20" class="edge">
<title>[root] aws_instance.vault_replication (expand)&#45;&gt;[root] data.aws_ami.ubuntu (expand)</title>
<path fill="none" stroke="black" d="M1316.91,-225.75C1185.61,-215.18 949.99,-195.29 846.52,-179.92"/>
<polygon fill="black" stroke="black" points="847.05,-176.46 836.64,-178.4 845.99,-183.38 847.05,-176.46"/>
</g>
<!-- [root] var.aws_instance_replication_count -->
<g id="node16" class="node">
<title>[root] var.aws_instance_replication_count</title>
<polygon fill="none" stroke="black" points="486,-180 282,-180 282,-144 492,-144 492,-174 486,-180"/>
<polyline fill="none" stroke="black" points="486,-180 486,-174"/>
<polyline fill="none" stroke="black" points="492,-174 486,-174"/>
<text text-anchor="middle" x="387" y="-158.3" font-family="Times,serif" font-size="14.00">var.aws_instance_replication_count</text>
</g>
<!-- [root] aws_instance.vault_replication (expand)&#45;&gt;[root] var.aws_instance_replication_count -->
<g id="edge21" class="edge">
<title>[root] aws_instance.vault_replication (expand)&#45;&gt;[root] var.aws_instance_replication_count</title>
<path fill="none" stroke="black" d="M1316.87,-225.33C1277.76,-222.21 1231.67,-218.71 1190,-216 887.73,-196.36 808.38,-210.12 502.29,-179.96"/>
<polygon fill="black" stroke="black" points="502.53,-176.47 492.24,-178.96 501.84,-183.43 502.53,-176.47"/>
</g>
<!-- [root] aws_instance.vault_replication (expand)&#45;&gt;[root] var.aws_instance_type -->
<g id="edge22" class="edge">
<title>[root] aws_instance.vault_replication (expand)&#45;&gt;[root] var.aws_instance_type</title>
<path fill="none" stroke="black" d="M1318.84,-215.97C1268.09,-206.27 1203.31,-193.71 1136.62,-180.11"/>
<polygon fill="black" stroke="black" points="1137.27,-176.67 1126.77,-178.09 1135.87,-183.53 1137.27,-176.67"/>
</g>
<!-- [root] aws_instance.vault_replication (expand)&#45;&gt;[root] var.ssh_private_key_location -->
<g id="edge23" class="edge">
<title>[root] aws_instance.vault_replication (expand)&#45;&gt;[root] var.ssh_private_key_location</title>
<path fill="none" stroke="black" d="M1365.7,-215.88C1341.29,-206.22 1310.6,-194.09 1284.79,-183.88"/>
<polygon fill="black" stroke="black" points="1285.74,-180.49 1275.16,-180.07 1283.17,-187 1285.74,-180.49"/>
</g>
<!-- [root] aws_instance.vault_replication (expand)&#45;&gt;[root] var.vault_binary_name -->
<g id="edge24" class="edge">
<title>[root] aws_instance.vault_replication (expand)&#45;&gt;[root] var.vault_binary_name</title>
<path fill="none" stroke="black" d="M1409,-215.7C1409,-207.98 1409,-198.71 1409,-190.11"/>
<polygon fill="black" stroke="black" points="1412.5,-190.1 1409,-180.1 1405.5,-190.1 1412.5,-190.1"/>
</g>
<!-- [root] aws_instance.vault_replication (expand)&#45;&gt;[root] var.vault_cluster_config_file_source -->
<g id="edge25" class="edge">
<title>[root] aws_instance.vault_replication (expand)&#45;&gt;[root] var.vault_cluster_config_file_source</title>
<path fill="none" stroke="black" d="M1456.94,-215.97C1484.47,-206.19 1519.22,-193.84 1548.24,-183.52"/>
<polygon fill="black" stroke="black" points="1549.59,-186.76 1557.85,-180.11 1547.25,-180.16 1549.59,-186.76"/>
</g>
<!-- [root] aws_instance.vault_replication (expand)&#45;&gt;[root] var.vault_config_file_destination -->
<g id="edge26" class="edge">
<title>[root] aws_instance.vault_replication (expand)&#45;&gt;[root] var.vault_config_file_destination</title>
<path fill="none" stroke="black" d="M1501.13,-217.68C1566.17,-206.87 1653.56,-192.34 1721.9,-180.97"/>
<polygon fill="black" stroke="black" points="1722.55,-184.41 1731.84,-179.32 1721.4,-177.51 1722.55,-184.41"/>
</g>
<!-- [root] aws_instance.vault_replication (expand)&#45;&gt;[root] var.vault_enterprise_license_destination -->
<g id="edge27" class="edge">
<title>[root] aws_instance.vault_replication (expand)&#45;&gt;[root] var.vault_enterprise_license_destination</title>
<path fill="none" stroke="black" d="M1501.1,-217.56C1505.11,-217.01 1509.1,-216.48 1513,-216 1697.48,-193.13 1747.32,-200.39 1936.02,-180.07"/>
<polygon fill="black" stroke="black" points="1936.43,-183.55 1945.99,-178.99 1935.67,-176.59 1936.43,-183.55"/>
</g>
<!-- [root] aws_instance.vault_replication (expand)&#45;&gt;[root] var.vault_enterprise_license_source -->
<g id="edge28" class="edge">
<title>[root] aws_instance.vault_replication (expand)&#45;&gt;[root] var.vault_enterprise_license_source</title>
<path fill="none" stroke="black" d="M1501.08,-217.4C1505.1,-216.89 1509.09,-216.42 1513,-216 1808.77,-184.05 1887.88,-209.63 2187.47,-180.09"/>
<polygon fill="black" stroke="black" points="2188.16,-183.54 2197.76,-179.06 2187.46,-176.58 2188.16,-183.54"/>
</g>
<!-- [root] aws_instance.vault_replication (expand)&#45;&gt;[root] var.vault_env_file_destination -->
<g id="edge29" class="edge">
<title>[root] aws_instance.vault_replication (expand)&#45;&gt;[root] var.vault_env_file_destination</title>
<path fill="none" stroke="black" d="M1501.07,-217.34C1505.1,-216.85 1509.09,-216.4 1513,-216 1909.73,-175.83 2015.33,-221.02 2416.19,-179.99"/>
<polygon fill="black" stroke="black" points="2416.73,-183.45 2426.32,-178.94 2416.01,-176.49 2416.73,-183.45"/>
</g>
<!-- [root] aws_instance.vault_replication (expand)&#45;&gt;[root] var.vault_env_file_source -->
<g id="edge30" class="edge">
<title>[root] aws_instance.vault_replication (expand)&#45;&gt;[root] var.vault_env_file_source</title>
<path fill="none" stroke="black" d="M1501.07,-217.3C1505.09,-216.82 1509.09,-216.38 1513,-216 1998.26,-168.63 2127.43,-234.34 2615.24,-180.09"/>
<polygon fill="black" stroke="black" points="2615.82,-183.55 2625.37,-178.95 2615.04,-176.59 2615.82,-183.55"/>
</g>
<!-- [root] provider[&quot;registry.terraform.io/hashicorp/aws&quot;] -->
<g id="node11" class="node">
<title>[root] provider[&quot;registry.terraform.io/hashicorp/aws&quot;]</title>
<polygon fill="none" stroke="black" points="576,-108 323.46,-90 576,-72 828.54,-90 576,-108"/>
<text text-anchor="middle" x="576" y="-86.3" font-family="Times,serif" font-size="14.00">provider[&quot;registry.terraform.io/hashicorp/aws&quot;]</text>
</g>
<!-- [root] aws_key_pair.key (expand)&#45;&gt;[root] provider[&quot;registry.terraform.io/hashicorp/aws&quot;] -->
<g id="edge31" class="edge">
<title>[root] aws_key_pair.key (expand)&#45;&gt;[root] provider[&quot;registry.terraform.io/hashicorp/aws&quot;]</title>
<path fill="none" stroke="black" d="M854.81,-146.05C851.84,-145.34 848.88,-144.65 846,-144 781.53,-129.38 707.86,-115.08 653.78,-105.03"/>
<polygon fill="black" stroke="black" points="654.39,-101.58 643.92,-103.2 653.11,-108.46 654.39,-101.58"/>
</g>
<!-- [root] var.aws_key_pair_key_name -->
<g id="node18" class="node">
<title>[root] var.aws_key_pair_key_name</title>
<polygon fill="none" stroke="black" points="1015.5,-108 846.5,-108 846.5,-72 1021.5,-72 1021.5,-102 1015.5,-108"/>
<polyline fill="none" stroke="black" points="1015.5,-108 1015.5,-102"/>
<polyline fill="none" stroke="black" points="1021.5,-102 1015.5,-102"/>
<text text-anchor="middle" x="934" y="-86.3" font-family="Times,serif" font-size="14.00">var.aws_key_pair_key_name</text>
</g>
<!-- [root] aws_key_pair.key (expand)&#45;&gt;[root] var.aws_key_pair_key_name -->
<g id="edge32" class="edge">
<title>[root] aws_key_pair.key (expand)&#45;&gt;[root] var.aws_key_pair_key_name</title>
<path fill="none" stroke="black" d="M917.44,-143.7C919.89,-135.9 922.84,-126.51 925.57,-117.83"/>
<polygon fill="black" stroke="black" points="928.96,-118.69 928.62,-108.1 922.29,-116.59 928.96,-118.69"/>
</g>
<!-- [root] var.ssh_public_key_location -->
<g id="node21" class="node">
<title>[root] var.ssh_public_key_location</title>
<polygon fill="none" stroke="black" points="1204.5,-108 1039.5,-108 1039.5,-72 1210.5,-72 1210.5,-102 1204.5,-108"/>
<polyline fill="none" stroke="black" points="1204.5,-108 1204.5,-102"/>
<polyline fill="none" stroke="black" points="1210.5,-102 1204.5,-102"/>
<text text-anchor="middle" x="1125" y="-86.3" font-family="Times,serif" font-size="14.00">var.ssh_public_key_location</text>
</g>
<!-- [root] aws_key_pair.key (expand)&#45;&gt;[root] var.ssh_public_key_location -->
<g id="edge33" class="edge">
<title>[root] aws_key_pair.key (expand)&#45;&gt;[root] var.ssh_public_key_location</title>
<path fill="none" stroke="black" d="M963.83,-143.97C993.85,-134.1 1031.82,-121.62 1063.37,-111.25"/>
<polygon fill="black" stroke="black" points="1064.53,-114.56 1072.93,-108.11 1062.34,-107.91 1064.53,-114.56"/>
</g>
<!-- [root] aws_kms_alias.autounseal_alias (expand) -->
<g id="node4" class="node">
<title>[root] aws_kms_alias.autounseal_alias (expand)</title>
<polygon fill="none" stroke="black" points="1181,-252 989,-252 989,-216 1181,-216 1181,-252"/>
<text text-anchor="middle" x="1085" y="-230.3" font-family="Times,serif" font-size="14.00">aws_kms_alias.autounseal_alias</text>
</g>
<!-- [root] aws_kms_alias.autounseal_alias (expand)&#45;&gt;[root] aws_kms_key.autounseal_key (expand) -->
<g id="edge34" class="edge">
<title>[root] aws_kms_alias.autounseal_alias (expand)&#45;&gt;[root] aws_kms_key.autounseal_key (expand)</title>
<path fill="none" stroke="black" d="M988.77,-229.93C838.39,-224.43 538.38,-210.58 273.88,-180.02"/>
<polygon fill="black" stroke="black" points="274.03,-176.52 263.69,-178.84 273.22,-183.47 274.03,-176.52"/>
</g>
<!-- [root] aws_kms_key.autounseal_key (expand)&#45;&gt;[root] provider[&quot;registry.terraform.io/hashicorp/aws&quot;] -->
<g id="edge35" class="edge">
<title>[root] aws_kms_key.autounseal_key (expand)&#45;&gt;[root] provider[&quot;registry.terraform.io/hashicorp/aws&quot;]</title>
<path fill="none" stroke="black" d="M263.69,-145.25C333.57,-133.11 429.24,-116.49 496.22,-104.86"/>
<polygon fill="black" stroke="black" points="497.05,-108.27 506.3,-103.11 495.85,-101.37 497.05,-108.27"/>
</g>
<!-- [root] var.aws_account_id -->
<g id="node13" class="node">
<title>[root] var.aws_account_id</title>
<polygon fill="none" stroke="black" points="118,-108 0,-108 0,-72 124,-72 124,-102 118,-108"/>
<polyline fill="none" stroke="black" points="118,-108 118,-102"/>
<polyline fill="none" stroke="black" points="124,-102 118,-102"/>
<text text-anchor="middle" x="62" y="-86.3" font-family="Times,serif" font-size="14.00">var.aws_account_id</text>
</g>
<!-- [root] aws_kms_key.autounseal_key (expand)&#45;&gt;[root] var.aws_account_id -->
<g id="edge36" class="edge">
<title>[root] aws_kms_key.autounseal_key (expand)&#45;&gt;[root] var.aws_account_id</title>
<path fill="none" stroke="black" d="M145.85,-143.88C131.47,-134.81 113.62,-123.55 98.09,-113.76"/>
<polygon fill="black" stroke="black" points="99.58,-110.56 89.26,-108.19 95.85,-116.48 99.58,-110.56"/>
</g>
<!-- [root] var.aws_iam_user -->
<g id="node14" class="node">
<title>[root] var.aws_iam_user</title>
<polygon fill="none" stroke="black" points="251.5,-108 142.5,-108 142.5,-72 257.5,-72 257.5,-102 251.5,-108"/>
<polyline fill="none" stroke="black" points="251.5,-108 251.5,-102"/>
<polyline fill="none" stroke="black" points="257.5,-102 251.5,-102"/>
<text text-anchor="middle" x="200" y="-86.3" font-family="Times,serif" font-size="14.00">var.aws_iam_user</text>
</g>
<!-- [root] aws_kms_key.autounseal_key (expand)&#45;&gt;[root] var.aws_iam_user -->
<g id="edge37" class="edge">
<title>[root] aws_kms_key.autounseal_key (expand)&#45;&gt;[root] var.aws_iam_user</title>
<path fill="none" stroke="black" d="M179.67,-143.7C182.71,-135.81 186.38,-126.3 189.76,-117.55"/>
<polygon fill="black" stroke="black" points="193.07,-118.69 193.4,-108.1 186.54,-116.17 193.07,-118.69"/>
</g>
<!-- [root] aws_security_group.vault_sg (expand)&#45;&gt;[root] provider[&quot;registry.terraform.io/hashicorp/aws&quot;] -->
<g id="edge38" class="edge">
<title>[root] aws_security_group.vault_sg (expand)&#45;&gt;[root] provider[&quot;registry.terraform.io/hashicorp/aws&quot;]</title>
<path fill="none" stroke="black" d="M592.56,-143.7C590.11,-135.9 587.16,-126.51 584.43,-117.83"/>
<polygon fill="black" stroke="black" points="587.71,-116.59 581.38,-108.1 581.04,-118.69 587.71,-116.59"/>
</g>
<!-- [root] data.aws_ami.ubuntu (expand)&#45;&gt;[root] provider[&quot;registry.terraform.io/hashicorp/aws&quot;] -->
<g id="edge39" class="edge">
<title>[root] data.aws_ami.ubuntu (expand)&#45;&gt;[root] provider[&quot;registry.terraform.io/hashicorp/aws&quot;]</title>
<path fill="none" stroke="black" d="M722.54,-143.88C693.01,-133.22 655.11,-119.55 625.25,-108.77"/>
<polygon fill="black" stroke="black" points="626.05,-105.34 615.46,-105.24 623.68,-111.92 626.05,-105.34"/>
</g>
<!-- [root] local_file.tmux (expand) -->
<g id="node8" class="node">
<title>[root] local_file.tmux (expand)</title>
<polygon fill="none" stroke="black" points="1772,-324 1672,-324 1672,-288 1772,-288 1772,-324"/>
<text text-anchor="middle" x="1722" y="-302.3" font-family="Times,serif" font-size="14.00">local_file.tmux</text>
</g>
<!-- [root] local_file.tmux (expand)&#45;&gt;[root] aws_instance.vault_cluster (expand) -->
<g id="edge40" class="edge">
<title>[root] local_file.tmux (expand)&#45;&gt;[root] aws_instance.vault_cluster (expand)</title>
<path fill="none" stroke="black" d="M1692.89,-287.88C1677.33,-278.72 1657.98,-267.34 1641.22,-257.48"/>
<polygon fill="black" stroke="black" points="1642.62,-254.24 1632.22,-252.19 1639.07,-260.28 1642.62,-254.24"/>
</g>
<!-- [root] local_file.tmux (expand)&#45;&gt;[root] aws_instance.vault_replication (expand) -->
<g id="edge41" class="edge">
<title>[root] local_file.tmux (expand)&#45;&gt;[root] aws_instance.vault_replication (expand)</title>
<path fill="none" stroke="black" d="M1671.71,-293.75C1624.19,-283.13 1551.93,-266.97 1495.22,-254.28"/>
<polygon fill="black" stroke="black" points="1495.7,-250.8 1485.18,-252.04 1494.17,-257.64 1495.7,-250.8"/>
</g>
<!-- [root] provider[&quot;registry.terraform.io/hashicorp/local&quot;] -->
<g id="node12" class="node">
<title>[root] provider[&quot;registry.terraform.io/hashicorp/local&quot;]</title>
<polygon fill="none" stroke="black" points="1959,-252 1701.77,-234 1959,-216 2216.23,-234 1959,-252"/>
<text text-anchor="middle" x="1959" y="-230.3" font-family="Times,serif" font-size="14.00">provider[&quot;registry.terraform.io/hashicorp/local&quot;]</text>
</g>
<!-- [root] local_file.tmux (expand)&#45;&gt;[root] provider[&quot;registry.terraform.io/hashicorp/local&quot;] -->
<g id="edge42" class="edge">
<title>[root] local_file.tmux (expand)&#45;&gt;[root] provider[&quot;registry.terraform.io/hashicorp/local&quot;]</title>
<path fill="none" stroke="black" d="M1772.26,-290.15C1810.47,-278.87 1863.03,-263.35 1902.65,-251.64"/>
<polygon fill="black" stroke="black" points="1903.83,-254.94 1912.43,-248.75 1901.85,-248.23 1903.83,-254.94"/>
</g>
<!-- [root] output.vault_cluster -->
<g id="node9" class="node">
<title>[root] output.vault_cluster</title>
<polygon fill="none" stroke="black" points="1493.5,-324 1374.5,-324 1374.5,-288 1499.5,-288 1499.5,-318 1493.5,-324"/>
<polyline fill="none" stroke="black" points="1493.5,-324 1493.5,-318"/>
<polyline fill="none" stroke="black" points="1499.5,-318 1493.5,-318"/>
<text text-anchor="middle" x="1437" y="-302.3" font-family="Times,serif" font-size="14.00">output.vault_cluster</text>
</g>
<!-- [root] output.vault_cluster&#45;&gt;[root] aws_instance.vault_cluster (expand) -->
<g id="edge43" class="edge">
<title>[root] output.vault_cluster&#45;&gt;[root] aws_instance.vault_cluster (expand)</title>
<path fill="none" stroke="black" d="M1477.61,-287.88C1500.4,-278.26 1529.03,-266.19 1553.17,-256.01"/>
<polygon fill="black" stroke="black" points="1554.67,-259.18 1562.52,-252.07 1551.95,-252.73 1554.67,-259.18"/>
</g>
<!-- [root] output.vault_replication -->
<g id="node10" class="node">
<title>[root] output.vault_replication</title>
<polygon fill="none" stroke="black" points="1531,-396 1391,-396 1391,-360 1537,-360 1537,-390 1531,-396"/>
<polyline fill="none" stroke="black" points="1531,-396 1531,-390"/>
<polyline fill="none" stroke="black" points="1537,-390 1531,-390"/>
<text text-anchor="middle" x="1464" y="-374.3" font-family="Times,serif" font-size="14.00">output.vault_replication</text>
</g>
<!-- [root] output.vault_replication&#45;&gt;[root] aws_instance.vault_replication (expand) -->
<g id="edge44" class="edge">
<title>[root] output.vault_replication&#45;&gt;[root] aws_instance.vault_replication (expand)</title>
<path fill="none" stroke="black" d="M1483.26,-359.87C1501.33,-341.65 1523.55,-312.18 1509,-288 1500.94,-274.6 1488.23,-264.42 1474.54,-256.73"/>
<polygon fill="black" stroke="black" points="1475.93,-253.51 1465.44,-252.04 1472.72,-259.73 1475.93,-253.51"/>
</g>
<!-- [root] var.aws_region -->
<g id="node19" class="node">
<title>[root] var.aws_region</title>
<polygon fill="none" stroke="black" points="619.5,-36 526.5,-36 526.5,0 625.5,0 625.5,-30 619.5,-36"/>
<polyline fill="none" stroke="black" points="619.5,-36 619.5,-30"/>
<polyline fill="none" stroke="black" points="625.5,-30 619.5,-30"/>
<text text-anchor="middle" x="576" y="-14.3" font-family="Times,serif" font-size="14.00">var.aws_region</text>
</g>
<!-- [root] provider[&quot;registry.terraform.io/hashicorp/aws&quot;]&#45;&gt;[root] var.aws_region -->
<g id="edge48" class="edge">
<title>[root] provider[&quot;registry.terraform.io/hashicorp/aws&quot;]&#45;&gt;[root] var.aws_region</title>
<path fill="none" stroke="black" d="M576,-71.7C576,-63.98 576,-54.71 576,-46.11"/>
<polygon fill="black" stroke="black" points="579.5,-46.1 576,-36.1 572.5,-46.1 579.5,-46.1"/>
</g>
<!-- [root] var.vault_replication_config_file_source -->
<g id="node31" class="node">
<title>[root] var.vault_replication_config_file_source</title>
<polygon fill="none" stroke="black" points="2265,-396 2035,-396 2035,-360 2271,-360 2271,-390 2265,-396"/>
<polyline fill="none" stroke="black" points="2265,-396 2265,-390"/>
<polyline fill="none" stroke="black" points="2271,-390 2265,-390"/>
<text text-anchor="middle" x="2153" y="-374.3" font-family="Times,serif" font-size="14.00">var.vault_replication_config_file_source</text>
</g>
<!-- [root] provider[&quot;registry.terraform.io/hashicorp/aws&quot;] (close) -->
<g id="node32" class="node">
<title>[root] provider[&quot;registry.terraform.io/hashicorp/aws&quot;] (close)</title>
<ellipse fill="none" stroke="black" cx="1129" cy="-306" rx="227.46" ry="18"/>
<text text-anchor="middle" x="1129" y="-302.3" font-family="Times,serif" font-size="14.00">[root] provider[&quot;registry.terraform.io/hashicorp/aws&quot;] (close)</text>
</g>
<!-- [root] provider[&quot;registry.terraform.io/hashicorp/aws&quot;] (close)&#45;&gt;[root] aws_instance.vault_cluster (expand) -->
<g id="edge45" class="edge">
<title>[root] provider[&quot;registry.terraform.io/hashicorp/aws&quot;] (close)&#45;&gt;[root] aws_instance.vault_cluster (expand)</title>
<path fill="none" stroke="black" d="M1243.39,-290.38C1319.15,-280.38 1420.66,-266.37 1510,-252 1510.61,-251.9 1511.22,-251.8 1511.83,-251.7"/>
<polygon fill="black" stroke="black" points="1512.59,-255.13 1521.88,-250.04 1511.44,-248.22 1512.59,-255.13"/>
</g>
<!-- [root] provider[&quot;registry.terraform.io/hashicorp/aws&quot;] (close)&#45;&gt;[root] aws_instance.vault_replication (expand) -->
<g id="edge46" class="edge">
<title>[root] provider[&quot;registry.terraform.io/hashicorp/aws&quot;] (close)&#45;&gt;[root] aws_instance.vault_replication (expand)</title>
<path fill="none" stroke="black" d="M1194.29,-288.68C1235.07,-278.48 1287.81,-265.3 1330.81,-254.55"/>
<polygon fill="black" stroke="black" points="1331.82,-257.9 1340.67,-252.08 1330.12,-251.11 1331.82,-257.9"/>
</g>
<!-- [root] provider[&quot;registry.terraform.io/hashicorp/aws&quot;] (close)&#45;&gt;[root] aws_kms_alias.autounseal_alias (expand) -->
<g id="edge47" class="edge">
<title>[root] provider[&quot;registry.terraform.io/hashicorp/aws&quot;] (close)&#45;&gt;[root] aws_kms_alias.autounseal_alias (expand)</title>
<path fill="none" stroke="black" d="M1118.12,-287.7C1113.01,-279.56 1106.8,-269.69 1101.16,-260.7"/>
<polygon fill="black" stroke="black" points="1104.04,-258.71 1095.75,-252.1 1098.11,-262.43 1104.04,-258.71"/>
</g>
<!-- [root] provider[&quot;registry.terraform.io/hashicorp/local&quot;] (close) -->
<g id="node33" class="node">
<title>[root] provider[&quot;registry.terraform.io/hashicorp/local&quot;] (close)</title>
<ellipse fill="none" stroke="black" cx="1786" cy="-378" rx="230.96" ry="18"/>
<text text-anchor="middle" x="1786" y="-374.3" font-family="Times,serif" font-size="14.00">[root] provider[&quot;registry.terraform.io/hashicorp/local&quot;] (close)</text>
</g>
<!-- [root] provider[&quot;registry.terraform.io/hashicorp/local&quot;] (close)&#45;&gt;[root] local_file.tmux (expand) -->
<g id="edge49" class="edge">
<title>[root] provider[&quot;registry.terraform.io/hashicorp/local&quot;] (close)&#45;&gt;[root] local_file.tmux (expand)</title>
<path fill="none" stroke="black" d="M1770.18,-359.7C1762.43,-351.22 1752.96,-340.86 1744.48,-331.58"/>
<polygon fill="black" stroke="black" points="1746.97,-329.12 1737.64,-324.1 1741.8,-333.85 1746.97,-329.12"/>
</g>
<!-- [root] root -->
<g id="node34" class="node">
<title>[root] root</title>
<ellipse fill="none" stroke="black" cx="1464" cy="-450" rx="47.39" ry="18"/>
<text text-anchor="middle" x="1464" y="-446.3" font-family="Times,serif" font-size="14.00">[root] root</text>
</g>
<!-- [root] root&#45;&gt;[root] output.vault_cluster -->
<g id="edge50" class="edge">
<title>[root] root&#45;&gt;[root] output.vault_cluster</title>
<path fill="none" stroke="black" d="M1431.2,-436.99C1413.19,-428.51 1392.45,-415.21 1382,-396 1374.35,-381.95 1375.74,-374.72 1382,-360 1386.73,-348.86 1395.08,-338.93 1403.87,-330.76"/>
<polygon fill="black" stroke="black" points="1406.35,-333.24 1411.62,-324.05 1401.77,-327.95 1406.35,-333.24"/>
</g>
<!-- [root] root&#45;&gt;[root] output.vault_replication -->
<g id="edge51" class="edge">
<title>[root] root&#45;&gt;[root] output.vault_replication</title>
<path fill="none" stroke="black" d="M1464,-431.7C1464,-423.98 1464,-414.71 1464,-406.11"/>
<polygon fill="black" stroke="black" points="1467.5,-406.1 1464,-396.1 1460.5,-406.1 1467.5,-406.1"/>
</g>
<!-- [root] root&#45;&gt;[root] var.vault_replication_config_file_source -->
<g id="edge54" class="edge">
<title>[root] root&#45;&gt;[root] var.vault_replication_config_file_source</title>
<path fill="none" stroke="black" d="M1509.96,-445.28C1604.35,-437.5 1827.11,-418.47 2024.73,-396.12"/>
<polygon fill="black" stroke="black" points="2025.17,-399.59 2034.72,-394.99 2024.38,-392.64 2025.17,-399.59"/>
</g>
<!-- [root] root&#45;&gt;[root] provider[&quot;registry.terraform.io/hashicorp/aws&quot;] (close) -->
<g id="edge52" class="edge">
<title>[root] root&#45;&gt;[root] provider[&quot;registry.terraform.io/hashicorp/aws&quot;] (close)</title>
<path fill="none" stroke="black" d="M1433.68,-436.15C1375.69,-411.57 1248.58,-357.69 1178.25,-327.87"/>
<polygon fill="black" stroke="black" points="1179.29,-324.51 1168.71,-323.83 1176.55,-330.96 1179.29,-324.51"/>
</g>
<!-- [root] root&#45;&gt;[root] provider[&quot;registry.terraform.io/hashicorp/local&quot;] (close) -->
<g id="edge53" class="edge">
<title>[root] root&#45;&gt;[root] provider[&quot;registry.terraform.io/hashicorp/local&quot;] (close)</title>
<path fill="none" stroke="black" d="M1504.13,-440.28C1553.42,-429.56 1638.32,-411.1 1702.1,-397.24"/>
<polygon fill="black" stroke="black" points="1703.12,-400.6 1712.15,-395.06 1701.63,-393.76 1703.12,-400.6"/>
</g>
</g>
</svg>
